<?xml version="1.0" standalone="no"?><!DOCTYPE svg PUBLIC "-//W3C//DTD SVG 1.1//EN" "http://www.w3.org/Graphics/SVG/1.1/DTD/svg11.dtd"><svg t="1717909398940" class="icon" viewBox="0 0 1024 1024" version="1.1" xmlns="http://www.w3.org/2000/svg" p-id="8713" xmlns:xlink="http://www.w3.org/1999/xlink" width="64" height="64"><path d="M811.707317 1024h-599.414634C94.907317 1024 0 929.092683 0 811.707317v-599.414634C0 94.907317 94.907317 0 212.292683 0h599.414634C929.092683 0 1024 94.907317 1024 212.292683v599.414634c0 117.385366-94.907317 212.292683-212.292683 212.292683zM212.292683 24.97561C109.892683 24.97561 24.97561 109.892683 24.97561 212.292683v599.414634C24.97561 914.107317 109.892683 999.02439 212.292683 999.02439h599.414634c102.4 0 187.317073-84.917073 187.317073-187.317073v-599.414634C999.02439 109.892683 914.107317 24.97561 811.707317 24.97561h-599.414634z" p-id="8714" fill="#13227a"></path><path d="M512 634.380488v-144.858537h374.634146v342.165854c-37.463415 34.965854-89.912195 64.936585-157.346341 92.409756s-139.863415 39.960976-209.795122 39.960976c-89.912195 0-167.336585-19.980488-234.770732-57.443903s-117.385366-92.409756-149.853658-162.341463-49.95122-147.356098-49.95122-229.77561c0-89.912195 17.482927-169.834146 54.946342-237.268293s92.409756-122.380488 164.839024-159.843902C359.64878 89.912195 427.082927 74.926829 509.502439 74.926829c107.395122 0 189.814634 22.478049 249.756098 67.434147 29.970732 22.478049 52.44878 47.453659 72.429268 77.42439 19.980488 32.468293 169.834146 0 177.326829 42.458536l-307.2 99.902439c-12.487805-42.458537-34.965854-74.926829-67.434146-99.902439s-74.926829-37.463415-124.878049-37.463414c-74.926829 0-134.868293 24.97561-179.82439 72.429268s-67.434146 119.882927-67.434147 214.790244c0 102.4 22.478049 177.326829 67.434147 229.77561s104.897561 77.42439 177.326829 77.42439c37.463415 0 72.429268-7.492683 109.892683-22.478049 37.463415-14.985366 67.434146-32.468293 94.907317-52.44878v-109.892683h-199.804878z" p-id="8715" fill="#13227a"></path></svg>